<svg id="visual" viewBox="0 0 1920 869" width="1920" height="869" xmlns="http://www.w3.org/2000/svg" xmlns:xlink="http://www.w3.org/1999/xlink" version="1.1"><rect x="0" y="0" width="1920" height="869" fill="#0A071B"></rect><path d="M0 250L274 299L549 303L823 244L1097 318L1371 224L1646 258L1920 218L1920 0L1646 0L1371 0L1097 0L823 0L549 0L274 0L0 0Z" fill="#1f0f36"></path><path d="M0 204L274 250L549 225L823 204L1097 250L1371 292L1646 210L1920 290L1920 0L1646 0L1371 0L1097 0L823 0L549 0L274 0L0 0Z" fill="#2d1354"></path><path d="M0 207L274 157L549 224L823 216L1097 163L1371 127L1646 132L1920 162L1920 0L1646 0L1371 0L1097 0L823 0L549 0L274 0L0 0Z" fill="#3b1773"></path><path d="M0 87L274 166L549 156L823 97L1097 146L1371 95L1646 157L1920 133L1920 0L1646 0L1371 0L1097 0L823 0L549 0L274 0L0 0Z" fill="#4a1a94"></path><path d="M0 80L274 36L549 45L823 105L1097 83L1371 65L1646 105L1920 89L1920 0L1646 0L1371 0L1097 0L823 0L549 0L274 0L0 0Z" fill="#591cb6"></path></svg>