<svg id="visual" viewBox="0 0 1920 772" width="1920" height="772" xmlns="http://www.w3.org/2000/svg" xmlns:xlink="http://www.w3.org/1999/xlink" version="1.1"><rect x="0" y="0" width="1920" height="772" fill="#0A071B"></rect><path d="M0 502L274 526L549 452L823 472L1097 472L1371 567L1646 495L1920 528L1920 773L1646 773L1371 773L1097 773L823 773L549 773L274 773L0 773Z" fill="#1f0f36"></path><path d="M0 571L274 554L549 514L823 519L1097 545L1371 577L1646 527L1920 574L1920 773L1646 773L1371 773L1097 773L823 773L549 773L274 773L0 773Z" fill="#2d1354"></path><path d="M0 652L274 591L549 565L823 640L1097 619L1371 603L1646 649L1920 634L1920 773L1646 773L1371 773L1097 773L823 773L549 773L274 773L0 773Z" fill="#3b1773"></path><path d="M0 685L274 620L549 645L823 658L1097 640L1371 669L1646 686L1920 671L1920 773L1646 773L1371 773L1097 773L823 773L549 773L274 773L0 773Z" fill="#4a1a94"></path><path d="M0 702L274 679L549 704L823 695L1097 690L1371 688L1646 726L1920 678L1920 773L1646 773L1371 773L1097 773L823 773L549 773L274 773L0 773Z" fill="#591cb6"></path></svg>