<svg id="visual" viewBox="0 0 960 540" width="960" height="540" xmlns="http://www.w3.org/2000/svg" xmlns:xlink="http://www.w3.org/1999/xlink" version="1.1"><path d="M0 120L87 66L175 77L262 87L349 109L436 98L524 82L611 55L698 120L785 104L873 50L960 93L960 0L873 0L785 0L698 0L611 0L524 0L436 0L349 0L262 0L175 0L87 0L0 0Z" fill="#4d0fab"></path><path d="M0 293L87 217L175 141L262 228L349 233L436 271L524 212L611 293L698 239L785 233L873 212L960 206L960 91L873 48L785 102L698 118L611 53L524 80L436 96L349 107L262 85L175 75L87 64L0 118Z" fill="#2f1a88"></path><path d="M0 384L87 374L175 352L262 363L349 395L436 374L524 384L611 417L698 433L785 379L873 379L960 352L960 204L873 210L785 231L698 237L611 291L524 210L436 269L349 231L262 226L175 139L87 215L0 291Z" fill="#1b1963"></path><path d="M0 422L87 433L175 444L262 455L349 471L436 428L524 433L611 482L698 487L785 444L873 449L960 433L960 350L873 377L785 377L698 431L611 415L524 382L436 372L349 393L262 361L175 350L87 372L0 382Z" fill="#11143e"></path><path d="M0 541L87 541L175 541L262 541L349 541L436 541L524 541L611 541L698 541L785 541L873 541L960 541L960 431L873 447L785 442L698 485L611 480L524 431L436 426L349 469L262 453L175 442L87 431L0 420Z" fill="#0a071b"></path></svg>